<svg xmlns="http://www.w3.org/2000/svg" viewBox="0 0 64 64"><title>2</title><g id="Layer_86" data-name="Layer 86"><path d="M55,20.19,36.68,5a7.34,7.34,0,0,0-9.36,0L9,20.19a7.31,7.31,0,0,0-2.65,5.65V53.37a7.34,7.34,0,0,0,7.33,7.33H50.33a7.34,7.34,0,0,0,7.33-7.33V25.83A7.31,7.31,0,0,0,55,20.19ZM53.67,53.37a3.34,3.34,0,0,1-3.33,3.33H13.67a3.34,3.34,0,0,1-3.33-3.33V25.83a3.32,3.32,0,0,1,1.21-2.57L29.87,8.07a3.34,3.34,0,0,1,4.26,0l18.33,15.2a3.32,3.32,0,0,1,1.21,2.57Z" id="id_101" style="fill: rgb(127, 127, 127);"></path></g></svg>